<?xml version="1.0" encoding="UTF-8" standalone="no"?>
<!DOCTYPE svg PUBLIC "-//W3C//DTD SVG 1.1//EN"
 "http://www.w3.org/Graphics/SVG/1.1/DTD/svg11.dtd">
<!-- Generated by graphviz version 2.40.1 (20161225.0304)
 -->
<!-- Title: dependencies Pages: 1 -->
<svg width="917pt" height="284pt"
 viewBox="0.00 0.00 917.00 284.00" xmlns="http://www.w3.org/2000/svg" xmlns:xlink="http://www.w3.org/1999/xlink">
<g id="graph0" class="graph" transform="scale(1 1) rotate(0) translate(4 280)">
<title>dependencies</title>
<polygon fill="#ffffff" stroke="transparent" points="-4,4 -4,-280 913,-280 913,4 -4,4"/>
<text text-anchor="start" x="433.5091" y="-42.4" font-family="sans-serif" font-weight="bold" font-size="14.00" fill="#000000">Legend</text>
<polygon fill="#ffffb3" stroke="transparent" points="220.5,-10 220.5,-30 240.5,-30 240.5,-10 220.5,-10"/>
<text text-anchor="start" x="244.129" y="-15.4" font-family="sans-serif" font-size="14.00" fill="#000000"> &#160;Declarations</text>
<polygon fill="#8dd3c7" stroke="transparent" points="333.5,-10 333.5,-30 353.5,-30 353.5,-10 333.5,-10"/>
<text text-anchor="start" x="357.2251" y="-15.4" font-family="sans-serif" font-size="14.00" fill="#000000"> &#160;Module</text>
<polygon fill="#80b1d3" stroke="transparent" points="419.5,-10 419.5,-30 439.5,-30 439.5,-10 419.5,-10"/>
<text text-anchor="start" x="443.2812" y="-15.4" font-family="sans-serif" font-size="14.00" fill="#000000"> &#160;Bootstrap</text>
<polygon fill="#fdb462" stroke="transparent" points="516.5,-10 516.5,-30 536.5,-30 536.5,-10 516.5,-10"/>
<text text-anchor="start" x="540.1732" y="-15.4" font-family="sans-serif" font-size="14.00" fill="#000000"> &#160;Providers</text>
<polygon fill="#fb8072" stroke="transparent" points="612.5,-10 612.5,-30 632.5,-30 632.5,-10 612.5,-10"/>
<text text-anchor="start" x="636.2258" y="-15.4" font-family="sans-serif" font-size="14.00" fill="#000000"> &#160;Exports</text>
<g id="clust1" class="cluster">
<title>cluster_AngularComponentsModule</title>
<polygon fill="none" stroke="#000000" stroke-dasharray="1,5" points="8,-70 8,-268 901,-268 901,-70 8,-70"/>
</g>
<g id="clust2" class="cluster">
<title>cluster_AngularComponentsModule_declarations</title>
<polygon fill="none" stroke="#000000" points="278,-78 278,-130 893,-130 893,-78 278,-78"/>
</g>
<g id="clust8" class="cluster">
<title>cluster_AngularComponentsModule_imports</title>
<polygon fill="none" stroke="#000000" points="168,-78 168,-130 270,-130 270,-78 168,-78"/>
</g>
<g id="clust9" class="cluster">
<title>cluster_AngularComponentsModule_exports</title>
<polygon fill="none" stroke="#000000" points="108,-208 108,-260 848,-260 848,-208 108,-208"/>
</g>
<g id="clust11" class="cluster">
<title>cluster_AngularComponentsModule_providers</title>
<polygon fill="none" stroke="#000000" points="16,-78 16,-130 160,-130 160,-78 16,-78"/>
</g>
<!-- AndavisSelect -->
<g id="node1" class="node">
<title>AndavisSelect</title>
<polygon fill="#ffffb3" stroke="#000000" points="885.3641,-122 788.6359,-122 788.6359,-86 885.3641,-86 885.3641,-122"/>
<text text-anchor="middle" x="837" y="-99.8" font-family="Times,serif" font-size="14.00" fill="#000000">AndavisSelect</text>
</g>
<!-- AngularComponentsModule -->
<g id="node6" class="node">
<title>AngularComponentsModule</title>
<polygon fill="#8dd3c7" stroke="#000000" points="571.1993,-187 568.1993,-191 547.1993,-191 544.1993,-187 394.8007,-187 394.8007,-151 571.1993,-151 571.1993,-187"/>
<text text-anchor="middle" x="483" y="-164.8" font-family="Times,serif" font-size="14.00" fill="#000000">AngularComponentsModule</text>
</g>
<!-- AndavisSelect&#45;&gt;AngularComponentsModule -->
<g id="edge1" class="edge">
<title>AndavisSelect&#45;&gt;AngularComponentsModule</title>
<path fill="none" stroke="#000000" d="M814.375,-122.1061C814.375,-141.3391 814.375,-169 814.375,-169 814.375,-169 581.3671,-169 581.3671,-169"/>
<polygon fill="#000000" stroke="#000000" points="581.3671,-165.5001 571.3671,-169 581.3671,-172.5001 581.3671,-165.5001"/>
</g>
<!-- DatePickerComponent -->
<g id="node2" class="node">
<title>DatePickerComponent</title>
<polygon fill="#ffffb3" stroke="#000000" points="770.5226,-122 627.4774,-122 627.4774,-86 770.5226,-86 770.5226,-122"/>
<text text-anchor="middle" x="699" y="-99.8" font-family="Times,serif" font-size="14.00" fill="#000000">DatePickerComponent</text>
</g>
<!-- DatePickerComponent&#45;&gt;AngularComponentsModule -->
<g id="edge2" class="edge">
<title>DatePickerComponent&#45;&gt;AngularComponentsModule</title>
<path fill="none" stroke="#000000" d="M674.375,-122.027C674.375,-138.3976 674.375,-160 674.375,-160 674.375,-160 581.1255,-160 581.1255,-160"/>
<polygon fill="#000000" stroke="#000000" points="581.1255,-156.5001 571.1255,-160 581.1255,-163.5001 581.1255,-156.5001"/>
</g>
<!-- Modal -->
<g id="node3" class="node">
<title>Modal</title>
<polygon fill="#ffffb3" stroke="#000000" points="609,-122 555,-122 555,-86 609,-86 609,-122"/>
<text text-anchor="middle" x="582" y="-99.8" font-family="Times,serif" font-size="14.00" fill="#000000">Modal</text>
</g>
<!-- Modal&#45;&gt;AngularComponentsModule -->
<g id="edge3" class="edge">
<title>Modal&#45;&gt;AngularComponentsModule</title>
<path fill="none" stroke="#000000" d="M563.0498,-122.1061C563.0498,-122.1061 563.0498,-140.991 563.0498,-140.991"/>
<polygon fill="#000000" stroke="#000000" points="559.5499,-140.9909 563.0498,-150.991 566.5499,-140.991 559.5499,-140.9909"/>
</g>
<!-- PageComponent -->
<g id="node4" class="node">
<title>PageComponent</title>
<polygon fill="#ffffb3" stroke="#000000" points="537.0452,-122 428.9548,-122 428.9548,-86 537.0452,-86 537.0452,-122"/>
<text text-anchor="middle" x="483" y="-99.8" font-family="Times,serif" font-size="14.00" fill="#000000">PageComponent</text>
</g>
<!-- PageComponent&#45;&gt;AngularComponentsModule -->
<g id="edge4" class="edge">
<title>PageComponent&#45;&gt;AngularComponentsModule</title>
<path fill="none" stroke="#000000" d="M483,-122.1061C483,-122.1061 483,-140.991 483,-140.991"/>
<polygon fill="#000000" stroke="#000000" points="479.5001,-140.9909 483,-150.991 486.5001,-140.991 479.5001,-140.9909"/>
</g>
<!-- SpinnerComponent -->
<g id="node5" class="node">
<title>SpinnerComponent</title>
<polygon fill="#ffffb3" stroke="#000000" points="410.3809,-122 285.6191,-122 285.6191,-86 410.3809,-86 410.3809,-122"/>
<text text-anchor="middle" x="348" y="-99.8" font-family="Times,serif" font-size="14.00" fill="#000000">SpinnerComponent</text>
</g>
<!-- SpinnerComponent&#45;&gt;AngularComponentsModule -->
<g id="edge5" class="edge">
<title>SpinnerComponent&#45;&gt;AngularComponentsModule</title>
<path fill="none" stroke="#000000" d="M402.6704,-122.1061C402.6704,-122.1061 402.6704,-140.991 402.6704,-140.991"/>
<polygon fill="#000000" stroke="#000000" points="399.1705,-140.9909 402.6704,-150.991 406.1705,-140.991 399.1705,-140.9909"/>
</g>
<!-- AndavisSelect  -->
<g id="node8" class="node">
<title>AndavisSelect </title>
<polygon fill="#fb8072" stroke="#000000" points="840.3647,-252 739.6353,-252 739.6353,-216 840.3647,-216 840.3647,-252"/>
<text text-anchor="middle" x="790" y="-229.8" font-family="Times,serif" font-size="14.00" fill="#000000">AndavisSelect </text>
</g>
<!-- AngularComponentsModule&#45;&gt;AndavisSelect  -->
<g id="edge7" class="edge">
<title>AngularComponentsModule&#45;&gt;AndavisSelect </title>
<path fill="none" stroke="#000000" stroke-dasharray="5,2" d="M571.4046,-178C650.9113,-178 755.2895,-178 755.2895,-178 755.2895,-178 755.2895,-205.973 755.2895,-205.973"/>
<polygon fill="#000000" stroke="#000000" points="751.7895,-205.973 755.2895,-215.973 758.7895,-205.973 751.7895,-205.973"/>
</g>
<!-- DatePickerComponent  -->
<g id="node9" class="node">
<title>DatePickerComponent </title>
<polygon fill="#fb8072" stroke="#000000" points="721.5218,-252 574.4782,-252 574.4782,-216 721.5218,-216 721.5218,-252"/>
<text text-anchor="middle" x="648" y="-229.8" font-family="Times,serif" font-size="14.00" fill="#000000">DatePickerComponent </text>
</g>
<!-- AngularComponentsModule&#45;&gt;DatePickerComponent  -->
<g id="edge8" class="edge">
<title>AngularComponentsModule&#45;&gt;DatePickerComponent </title>
<path fill="none" stroke="#000000" stroke-dasharray="5,2" d="M563.5622,-187.1061C563.5622,-206.3391 563.5622,-234 563.5622,-234 563.5622,-234 564.6317,-234 564.6317,-234"/>
<polygon fill="#000000" stroke="#000000" points="564.2564,-237.5001 574.2563,-234 564.2563,-230.5001 564.2564,-237.5001"/>
</g>
<!-- Modal  -->
<g id="node10" class="node">
<title>Modal </title>
<polygon fill="#fb8072" stroke="#000000" points="556.0498,-252 499.9502,-252 499.9502,-216 556.0498,-216 556.0498,-252"/>
<text text-anchor="middle" x="528" y="-229.8" font-family="Times,serif" font-size="14.00" fill="#000000">Modal </text>
</g>
<!-- AngularComponentsModule&#45;&gt;Modal  -->
<g id="edge9" class="edge">
<title>AngularComponentsModule&#45;&gt;Modal </title>
<path fill="none" stroke="#000000" stroke-dasharray="5,2" d="M528,-187.1061C528,-187.1061 528,-205.991 528,-205.991"/>
<polygon fill="#000000" stroke="#000000" points="524.5001,-205.9909 528,-215.991 531.5001,-205.991 524.5001,-205.9909"/>
</g>
<!-- PageComponent  -->
<g id="node11" class="node">
<title>PageComponent </title>
<polygon fill="#fb8072" stroke="#000000" points="482.0442,-252 369.9558,-252 369.9558,-216 482.0442,-216 482.0442,-252"/>
<text text-anchor="middle" x="426" y="-229.8" font-family="Times,serif" font-size="14.00" fill="#000000">PageComponent </text>
</g>
<!-- AngularComponentsModule&#45;&gt;PageComponent  -->
<g id="edge10" class="edge">
<title>AngularComponentsModule&#45;&gt;PageComponent </title>
<path fill="none" stroke="#000000" stroke-dasharray="5,2" d="M438.4613,-187.1061C438.4613,-187.1061 438.4613,-205.991 438.4613,-205.991"/>
<polygon fill="#000000" stroke="#000000" points="434.9613,-205.9909 438.4613,-215.991 441.9613,-205.991 434.9613,-205.9909"/>
</g>
<!-- SpinnerComponent  -->
<g id="node12" class="node">
<title>SpinnerComponent </title>
<polygon fill="#fb8072" stroke="#000000" points="352.3814,-252 223.6186,-252 223.6186,-216 352.3814,-216 352.3814,-252"/>
<text text-anchor="middle" x="288" y="-229.8" font-family="Times,serif" font-size="14.00" fill="#000000">SpinnerComponent </text>
</g>
<!-- AngularComponentsModule&#45;&gt;SpinnerComponent  -->
<g id="edge11" class="edge">
<title>AngularComponentsModule&#45;&gt;SpinnerComponent </title>
<path fill="none" stroke="#000000" stroke-dasharray="5,2" d="M394.692,-180C355.8448,-180 318.875,-180 318.875,-180 318.875,-180 318.875,-205.7181 318.875,-205.7181"/>
<polygon fill="#000000" stroke="#000000" points="315.3751,-205.718 318.875,-215.7181 322.3751,-205.7181 315.3751,-205.718"/>
</g>
<!-- TabsModule  -->
<g id="node13" class="node">
<title>TabsModule </title>
<polygon fill="#fb8072" stroke="#000000" points="206.262,-252 115.738,-252 115.738,-216 206.262,-216 206.262,-252"/>
<text text-anchor="middle" x="161" y="-229.8" font-family="Times,serif" font-size="14.00" fill="#000000">TabsModule </text>
</g>
<!-- AngularComponentsModule&#45;&gt;TabsModule  -->
<g id="edge12" class="edge">
<title>AngularComponentsModule&#45;&gt;TabsModule </title>
<path fill="none" stroke="#000000" stroke-dasharray="5,2" d="M394.5601,-173C308.5802,-173 190.875,-173 190.875,-173 190.875,-173 190.875,-205.698 190.875,-205.698"/>
<polygon fill="#000000" stroke="#000000" points="187.3751,-205.698 190.875,-215.698 194.3751,-205.698 187.3751,-205.698"/>
</g>
<!-- TabsModule -->
<g id="node7" class="node">
<title>TabsModule</title>
<polygon fill="#8dd3c7" stroke="#000000" points="262.2619,-122 259.2619,-126 238.2619,-126 235.2619,-122 175.7381,-122 175.7381,-86 262.2619,-86 262.2619,-122"/>
<text text-anchor="middle" x="219" y="-99.8" font-family="Times,serif" font-size="14.00" fill="#000000">TabsModule</text>
</g>
<!-- TabsModule&#45;&gt;AngularComponentsModule -->
<g id="edge6" class="edge">
<title>TabsModule&#45;&gt;AngularComponentsModule</title>
<path fill="none" stroke="#000000" d="M243.0952,-122.0091C243.0952,-138.0494 243.0952,-159 243.0952,-159 243.0952,-159 384.6904,-159 384.6904,-159"/>
<polygon fill="#000000" stroke="#000000" points="384.6904,-162.5001 394.6904,-159 384.6903,-155.5001 384.6904,-162.5001"/>
</g>
<!-- AlertProvider -->
<g id="node14" class="node">
<title>AlertProvider</title>
<ellipse fill="#fdb462" stroke="#000000" cx="88" cy="-104" rx="64.261" ry="18"/>
<text text-anchor="middle" x="88" y="-99.8" font-family="Times,serif" font-size="14.00" fill="#000000">AlertProvider</text>
</g>
<!-- AlertProvider&#45;&gt;AngularComponentsModule -->
<g id="edge13" class="edge">
<title>AlertProvider&#45;&gt;AngularComponentsModule</title>
<path fill="none" stroke="#000000" d="M133.9998,-116.5466C133.9998,-134.6632 133.9998,-166 133.9998,-166 133.9998,-166 384.4813,-166 384.4813,-166"/>
<polygon fill="#000000" stroke="#000000" points="384.4814,-169.5001 394.4813,-166 384.4813,-162.5001 384.4814,-169.5001"/>
</g>
</g>
</svg>
