<?xml version="1.0" encoding="UTF-8" standalone="no"?>
<!DOCTYPE svg PUBLIC "-//W3C//DTD SVG 1.1//EN"
 "http://www.w3.org/Graphics/SVG/1.1/DTD/svg11.dtd">
<!-- Generated by graphviz version 2.40.1 (20161225.0304)
 -->
<!-- Title: dependencies Pages: 1 -->
<svg width="504pt" height="284pt"
 viewBox="0.00 0.00 504.00 284.00" xmlns="http://www.w3.org/2000/svg" xmlns:xlink="http://www.w3.org/1999/xlink">
<g id="graph0" class="graph" transform="scale(1 1) rotate(0) translate(4 280)">
<title>dependencies</title>
<polygon fill="#ffffff" stroke="transparent" points="-4,4 -4,-280 500,-280 500,4 -4,4"/>
<text text-anchor="start" x="227.0091" y="-42.4" font-family="sans-serif" font-weight="bold" font-size="14.00" fill="#000000">Legend</text>
<polygon fill="#ffffb3" stroke="transparent" points="14,-10 14,-30 34,-30 34,-10 14,-10"/>
<text text-anchor="start" x="37.629" y="-15.4" font-family="sans-serif" font-size="14.00" fill="#000000"> &#160;Declarations</text>
<polygon fill="#8dd3c7" stroke="transparent" points="127,-10 127,-30 147,-30 147,-10 127,-10"/>
<text text-anchor="start" x="150.7251" y="-15.4" font-family="sans-serif" font-size="14.00" fill="#000000"> &#160;Module</text>
<polygon fill="#80b1d3" stroke="transparent" points="213,-10 213,-30 233,-30 233,-10 213,-10"/>
<text text-anchor="start" x="236.7812" y="-15.4" font-family="sans-serif" font-size="14.00" fill="#000000"> &#160;Bootstrap</text>
<polygon fill="#fdb462" stroke="transparent" points="310,-10 310,-30 330,-30 330,-10 310,-10"/>
<text text-anchor="start" x="333.6732" y="-15.4" font-family="sans-serif" font-size="14.00" fill="#000000"> &#160;Providers</text>
<polygon fill="#fb8072" stroke="transparent" points="406,-10 406,-30 426,-30 426,-10 406,-10"/>
<text text-anchor="start" x="429.7258" y="-15.4" font-family="sans-serif" font-size="14.00" fill="#000000"> &#160;Exports</text>
<g id="clust1" class="cluster">
<title>cluster_TabsModule</title>
<polygon fill="none" stroke="#000000" stroke-dasharray="1,5" points="29.5,-70 29.5,-268 466.5,-268 466.5,-70 29.5,-70"/>
</g>
<g id="clust2" class="cluster">
<title>cluster_TabsModule_declarations</title>
<polygon fill="none" stroke="#000000" points="42.5,-78 42.5,-130 453.5,-130 453.5,-78 42.5,-78"/>
</g>
<g id="clust7" class="cluster">
<title>cluster_TabsModule_exports</title>
<polygon fill="none" stroke="#000000" points="37.5,-208 37.5,-260 458.5,-260 458.5,-208 37.5,-208"/>
</g>
<!-- TabComponent -->
<g id="node1" class="node">
<title>TabComponent</title>
<polygon fill="#ffffb3" stroke="#000000" points="445.0996,-122 341.9004,-122 341.9004,-86 445.0996,-86 445.0996,-122"/>
<text text-anchor="middle" x="393.5" y="-99.8" font-family="Times,serif" font-size="14.00" fill="#000000">TabComponent</text>
</g>
<!-- TabsModule -->
<g id="node4" class="node">
<title>TabsModule</title>
<polygon fill="#8dd3c7" stroke="#000000" points="293.7619,-187 290.7619,-191 269.7619,-191 266.7619,-187 207.2381,-187 207.2381,-151 293.7619,-151 293.7619,-187"/>
<text text-anchor="middle" x="250.5" y="-164.8" font-family="Times,serif" font-size="14.00" fill="#000000">TabsModule</text>
</g>
<!-- TabComponent&#45;&gt;TabsModule -->
<g id="edge1" class="edge">
<title>TabComponent&#45;&gt;TabsModule</title>
<path fill="none" stroke="#000000" d="M411.4333,-122.0225C411.4333,-139.3734 411.4333,-163 411.4333,-163 411.4333,-163 304.0509,-163 304.0509,-163"/>
<polygon fill="#000000" stroke="#000000" points="304.0509,-159.5001 294.0509,-163 304.0508,-166.5001 304.0509,-159.5001"/>
</g>
<!-- TabContentComponent -->
<g id="node2" class="node">
<title>TabContentComponent</title>
<polygon fill="#ffffb3" stroke="#000000" points="324.4326,-122 176.5674,-122 176.5674,-86 324.4326,-86 324.4326,-122"/>
<text text-anchor="middle" x="250.5" y="-99.8" font-family="Times,serif" font-size="14.00" fill="#000000">TabContentComponent</text>
</g>
<!-- TabContentComponent&#45;&gt;TabsModule -->
<g id="edge2" class="edge">
<title>TabContentComponent&#45;&gt;TabsModule</title>
<path fill="none" stroke="#000000" d="M250.5,-122.1061C250.5,-122.1061 250.5,-140.991 250.5,-140.991"/>
<polygon fill="#000000" stroke="#000000" points="247.0001,-140.9909 250.5,-150.991 254.0001,-140.991 247.0001,-140.9909"/>
</g>
<!-- TabsComponent -->
<g id="node3" class="node">
<title>TabsComponent</title>
<polygon fill="#ffffb3" stroke="#000000" points="158.5452,-122 50.4548,-122 50.4548,-86 158.5452,-86 158.5452,-122"/>
<text text-anchor="middle" x="104.5" y="-99.8" font-family="Times,serif" font-size="14.00" fill="#000000">TabsComponent</text>
</g>
<!-- TabsComponent&#45;&gt;TabsModule -->
<g id="edge3" class="edge">
<title>TabsComponent&#45;&gt;TabsModule</title>
<path fill="none" stroke="#000000" d="M121.7574,-122.0225C121.7574,-139.3734 121.7574,-163 121.7574,-163 121.7574,-163 196.9136,-163 196.9136,-163"/>
<polygon fill="#000000" stroke="#000000" points="196.9137,-166.5001 206.9136,-163 196.9136,-159.5001 196.9137,-166.5001"/>
</g>
<!-- TabComponent  -->
<g id="node5" class="node">
<title>TabComponent </title>
<polygon fill="#fb8072" stroke="#000000" points="450.6003,-252 344.3997,-252 344.3997,-216 450.6003,-216 450.6003,-252"/>
<text text-anchor="middle" x="397.5" y="-229.8" font-family="Times,serif" font-size="14.00" fill="#000000">TabComponent </text>
</g>
<!-- TabsModule&#45;&gt;TabComponent  -->
<g id="edge4" class="edge">
<title>TabsModule&#45;&gt;TabComponent </title>
<path fill="none" stroke="#000000" stroke-dasharray="5,2" d="M293.9591,-175C330.8418,-175 377.8167,-175 377.8167,-175 377.8167,-175 377.8167,-205.9775 377.8167,-205.9775"/>
<polygon fill="#000000" stroke="#000000" points="374.3168,-205.9774 377.8167,-215.9775 381.3168,-205.9775 374.3168,-205.9774"/>
</g>
<!-- TabContentComponent  -->
<g id="node6" class="node">
<title>TabContentComponent </title>
<polygon fill="#fb8072" stroke="#000000" points="325.932,-252 175.068,-252 175.068,-216 325.932,-216 325.932,-252"/>
<text text-anchor="middle" x="250.5" y="-229.8" font-family="Times,serif" font-size="14.00" fill="#000000">TabContentComponent </text>
</g>
<!-- TabsModule&#45;&gt;TabContentComponent  -->
<g id="edge5" class="edge">
<title>TabsModule&#45;&gt;TabContentComponent </title>
<path fill="none" stroke="#000000" stroke-dasharray="5,2" d="M250.5,-187.1061C250.5,-187.1061 250.5,-205.991 250.5,-205.991"/>
<polygon fill="#000000" stroke="#000000" points="247.0001,-205.9909 250.5,-215.991 254.0001,-205.991 247.0001,-205.9909"/>
</g>
<!-- TabsComponent  -->
<g id="node7" class="node">
<title>TabsComponent </title>
<polygon fill="#fb8072" stroke="#000000" points="157.5442,-252 45.4558,-252 45.4558,-216 157.5442,-216 157.5442,-252"/>
<text text-anchor="middle" x="101.5" y="-229.8" font-family="Times,serif" font-size="14.00" fill="#000000">TabsComponent </text>
</g>
<!-- TabsModule&#45;&gt;TabsComponent  -->
<g id="edge6" class="edge">
<title>TabsModule&#45;&gt;TabsComponent </title>
<path fill="none" stroke="#000000" stroke-dasharray="5,2" d="M206.8469,-175C158.1108,-175 85.9926,-175 85.9926,-175 85.9926,-175 85.9926,-205.9775 85.9926,-205.9775"/>
<polygon fill="#000000" stroke="#000000" points="82.4927,-205.9774 85.9926,-215.9775 89.4927,-205.9775 82.4927,-205.9774"/>
</g>
</g>
</svg>
